<?xml version="1.0" standalone="no"?>
<!DOCTYPE svg PUBLIC "-//W3C//DTD SVG 20010904//EN"
 "http://www.w3.org/TR/2001/REC-SVG-20010904/DTD/svg10.dtd">
<svg version="1.0" xmlns="http://www.w3.org/2000/svg"
 width="128.000000pt" height="128.000000pt" viewBox="0 0 128.000000 128.000000"
 preserveAspectRatio="xMidYMid meet">
<metadata>
Created by potrace 1.16, written by Peter Selinger 2001-2019
</metadata>
<g transform="translate(0.000000,128.000000) scale(0.100000,-0.100000)"
fill="#000000" stroke="none">
<path d="M451 1235 c-215 -60 -382 -230 -437 -445 -25 -97 -16 -273 19 -362
66 -172 191 -297 365 -366 62 -24 78 -27 212 -27 134 0 150 3 212 27 214 85
370 277 394 483 6 51 8 54 24 40 20 -18 40 -20 40 -2 0 17 -52 67 -70 67 -18
0 -70 -50 -70 -67 0 -16 22 -17 38 -1 34 34 -5 -120 -56 -216 -71 -136 -218
-252 -368 -291 -75 -19 -213 -19 -288 0 -198 52 -369 223 -421 421 -19 75 -19
213 0 288 39 150 155 297 291 368 93 49 169 68 274 68 161 0 297 -57 413 -172
68 -68 87 -80 87 -54 0 20 -106 124 -168 163 -102 66 -172 86 -312 89 -90 3
-140 0 -179 -11z"/>
<path d="M377 862 l-37 -38 0 -232 0 -232 290 0 290 0 0 233 0 233 -38 37 -38
37 -215 0 -215 0 -37 -38z m183 -105 l0 -43 70 0 70 0 0 43 0 43 100 0 100 0
0 -210 0 -210 -270 0 -270 0 0 210 0 210 100 0 100 0 0 -43z"/>
</g>
</svg>
